<?xml version="1.0" encoding="utf-8"?>
<!-- Generator: Adobe Illustrator 24.0.1, SVG Export Plug-In . SVG Version: 6.00 Build 0)  -->
<svg version="1.1" id="Layer_1" xmlns="http://www.w3.org/2000/svg" xmlns:xlink="http://www.w3.org/1999/xlink" x="0px" y="0px"
	 viewBox="0 0 338.1 96" style="enable-background:new 0 0 338.1 96;" xml:space="preserve">
<style type="text/css">
	.st0{fill:#010101;}
	.st1{fill:#FFFFFF;}
</style>
<g>
	<path class="st1" d="M17.1,65.4c-4.2,0-9.5-1.4-15-3.8c-0.7-0.3-1-10.5-1.4-13.4c-0.1-0.6,0.8-0.6,1-0.2
		c3.5,11.2,8.9,15.4,17.4,15.4c6.5,0,11-4,11-11.8C30.1,35.9,2.9,36.8,2.9,21c0-8.6,6.5-15.4,18-15.4c4.2,0,7.2,0.8,11.4,3
		c0.7,0.3,0.7,7.9,1,10.8c0.1,0.6-0.8,0.6-0.9,0.2c-2.6-7.7-7-12.1-13.8-12.1c-5.2,0-9.4,3.2-9.4,10.3c0,14.2,27.2,12.6,27.2,31.8
		C36.3,58.1,29.5,65.4,17.1,65.4z"/>
	<path class="st1" d="M86.7,63.9c-3.7,0-5,0.1-7.4,0.2c-0.4,0.1-0.6-0.7,0.1-0.9c1.8-0.4,2.5-0.3,3.4-0.9c1-0.5,1.4-6.4,1-23
		c-0.1-3.9-2.5-5.8-7-5.8c-3.6,0-5.8,1.4-7.9,3.8c-0.6,0.7-0.8,1.2-0.8,2.1v0.7c0,18.8,0.4,22,1,22.3c1,0.6,2,0.5,3.8,0.9
		c0.6,0.2,0.5,1,0.1,0.9C71,64,69.2,64,65.2,64c-3.7,0-5,0.1-7.4,0.2c-0.4,0.1-0.6-0.7,0.1-0.9c1.8-0.4,2.5-0.3,3.4-0.9
		c0.9-0.5,1.4-5.2,1-21.8c-0.2-5.4-2.5-7.3-7-7.3c-3.6,0-5.8,1.7-7.9,4c-0.6,0.7-0.8,1.1-0.8,2.1l0.2,7.8c0.2,13.9,0.3,14.9,1,15.3
		c1,0.6,1.6,0.5,3.4,0.9c0.6,0.2,0.5,1,0.1,0.9c-2.3-0.2-3.7-0.2-7.4-0.2c-4,0-6.3,0.1-8.3,0.2c-0.4,0.1-0.6-0.7,0.1-0.9
		c1.8-0.4,3.4-0.3,4.4-0.9c0.6-0.3,1-1.4,1-15.3c0-9.6-0.2-10.6-1-11.4c-0.7-0.6-1.7-1-3.6-1.1c-0.6-0.1-0.4-0.6-0.1-0.7
		c3.8-1.1,6.6-3.9,9.2-5.9c0.5-0.4,0.9,0.1,0.9,0.4c-0.2,1-0.5,4.9-0.6,7.8c0,0.2,0.6,0.4,0.7,0.2c3.8-4.1,7.8-7.1,12.3-7.1
		c4.8,0,7.4,2.7,8.6,6.5c0.1,0.3,0.6,0.4,0.7,0.3c3.9-3.9,7.7-6.5,12.2-6.5c6.9,0,9.2,4.1,9.2,9.7c0,18.8,0.3,22.7,1,23
		c1,0.6,2.6,0.5,4.4,0.9c0.6,0.2,0.5,1,0.1,0.9C92.9,63.9,90.7,63.9,86.7,63.9z"/>
	<path class="st1" d="M99.5,63.9c-4,0-6.2,0.1-8.3,0.2c-0.4,0.1-0.6-0.7,0.1-0.9c1.8-0.4,3.4-0.3,4.4-0.9c0.6-0.3,1-1.4,1-15.3
		c0-9.6-0.2-11.1-1-11.9c-0.7-0.7-1.7-1.2-3.5-1.5c-0.6-0.2-0.5-0.6-0.2-0.7c3.8-0.7,7.3-3.2,9.8-5c0.5-0.3,1,0.2,0.9,0.6
		c-0.3,1-0.2,3.9-0.2,6.8l-0.2,11.8c-0.2,13.9,0.3,14.9,1,15.3c0.9,0.6,2.6,0.5,4.3,0.9c0.6,0.2,0.5,1,0.1,0.9
		C105.5,63.9,103.2,63.9,99.5,63.9z M98.9,15.6c-2.1,0-3.8-1.4-3.8-3.4c0-2.4,2.1-4.2,4.3-4.2c2.1,0,3.5,1.5,3.5,3.7
		C103,13.8,101.3,15.6,98.9,15.6z"/>
	<path class="st1" d="M120.1,64.8c-7.1,0-8.5-4.6-8.5-9.8c0-6.6,0.2-18.8,0.2-21.4c-2.5-0.1-4.6-0.2-6.6,0c-0.4,0-0.4-1.5,0.2-1.7
		c5.3-1.3,9.3-5,11.6-9.5c0.3-0.6,1.4-0.1,1.4,0.2c-0.1,1-0.4,4.2-0.5,7.1c0,0.2,0.2,0.5,0.7,0.5c5.6,0,7.5-0.2,10.5-0.3
		c0.8-0.1,0.9,4-0.2,3.9c-3-0.2-5.8-0.3-11.4-0.3c0,3.8-0.2,14.2-0.2,20.4c0,5,1.2,8.1,5.4,8.1c2.5,0,4.6-0.6,6.4-2
		c0.3-0.2,0.6,0.5,0.5,0.6C127.7,62.9,123.3,64.8,120.1,64.8z"/>
	<path class="st1" d="M158.1,63.9c-3.8,0-5.5,0.1-7.8,0.2c-0.4,0.1-0.5-0.7,0.1-0.9c1.8-0.4,2.9-0.3,3.8-0.9c0.9-0.5,1.4-5.2,1-21.8
		c-0.2-5.4-3.6-7.3-8.2-7.3c-3.6,0-6.3,1.7-8.4,4c-0.6,0.7-0.8,1.1-0.8,2.1v7.8c0,13.8,0.3,14.9,1,15.3c1,0.6,2,0.5,3.8,0.9
		c0.6,0.2,0.5,1,0.1,0.9c-2.3-0.2-4.1-0.2-7.8-0.2c-4,0-6.3,0.1-8.4,0.2c-0.3,0.1-0.5-0.7,0.1-0.9c1.8-0.4,3.4-0.3,4.4-0.9
		c0.6-0.3,1-1.5,1-28.1c0-22.2-0.2-26.4-1-26.9c-0.7-0.5-2.1-0.8-3.9-1c-0.6-0.1-0.5-0.6-0.2-0.7c3.8-0.6,8.2-2.1,10.9-3.9
		c0.5-0.3,0.9,0.2,0.8,0.6c-0.5,1.7-0.6,4.8-0.6,5.7l-0.2,27.5c0,0.3,0.6,0.4,0.6,0.3c3.8-4.2,7.7-6.6,12.2-6.6
		c6.8,0,10.2,4.6,10.2,11.2c0,18.8,0.4,21.5,1,21.8c1,0.6,2.6,0.5,4.4,0.9c0.6,0.2,0.5,1,0.1,0.9C164.3,63.9,162,63.9,158.1,63.9z"
		/>
	<path class="st1" d="M173.1,64.8c-2.6,0-6.9-1.2-8.4-2.1c-0.7-0.5-1.5-4.7-1.7-8.2c0-0.6,0.9-0.6,1-0.2c0.9,3.8,5.8,8.8,9.9,8.8
		c4.1,0,6.6-2.5,6.6-6.6c0-8.2-16.3-7.8-16.3-17.1c0-5.8,4.8-10.2,11.6-10.2c2.1,0,5.8,0.6,7,1.3c0.7,0.4,1,4.5,1,7.4
		c0,0.6-0.9,0.6-1,0.2c-0.5-3-4.5-7.2-8-7.2s-5.4,2.2-5.4,5.4c0,8.4,16.5,7.2,16.5,17.8C185.9,60.2,180.7,64.8,173.1,64.8z"/>
	<path class="st1" d="M204.3,64.8c-11.8,0-17.6-8.8-17.6-18c0-9.4,7-17.5,17.3-17.5c11.8,0,17.7,8.8,17.7,18.1
		C221.6,56.7,214.7,64.8,204.3,64.8z M203.6,30.7c-6.2,0-10.6,6.7-10.6,15.5c0,9.3,4.5,17.4,11.8,17.4c6.3,0,10.6-6.7,10.6-15.5
		C215.4,38.7,210.9,30.7,203.6,30.7z"/>
	<path class="st1" d="M250.3,63.9c-3.7,0-5.4,0.1-7.8,0.2c-0.4,0.1-0.6-0.7,0.1-0.9c1.8-0.4,2.9-0.3,3.8-0.9c0.9-0.5,1.4-5.2,1-21.8
		c-0.2-5.4-3-7.3-7.6-7.3c-3.6,0-5.8,1.7-7.9,4c-0.6,0.7-0.8,1.1-0.8,2.1l0.2,7.8c0.2,13.9,0.3,14.9,1,15.3c1,0.6,2.3,0.5,4.1,0.9
		c0.6,0.2,0.5,1,0.2,0.9C234,64,232,64,228.5,64c-4,0-6.3,0.1-8.3,0.2c-0.4,0.1-0.6-0.7,0.1-0.9c1.8-0.4,3.4-0.3,4.4-0.9
		c0.6-0.3,1-1.4,1-15.3c0-9.6-0.2-10.6-1-11.4c-0.7-0.6-1.7-1-3.6-1.1c-0.6-0.1-0.5-0.6-0.1-0.7c3.8-1.1,6.6-3.9,9.2-5.9
		c0.5-0.4,0.9,0.1,0.9,0.4c-0.2,1-0.5,4.9-0.6,7.8c0,0.2,0.6,0.4,0.7,0.2c3.8-4.1,7.8-7.1,12.3-7.1c6.9,0,9.8,4.6,9.8,11.2
		c0,18.8,0.3,21.5,1,21.8c1,0.6,2.6,0.5,4.4,0.9c0.6,0.2,0.5,1,0.1,0.9C256.5,63.9,254.3,63.9,250.3,63.9z"/>
	<path class="st1" d="M264.2,63.9c-4,0-6.2,0.1-8.3,0.2c-0.4,0.1-0.6-0.7,0.1-0.9c1.8-0.4,3.4-0.3,4.4-0.9c0.6-0.3,1-1.4,1-15.3
		c0-9.6-0.2-11.1-1-11.9c-0.7-0.7-1.7-1.2-3.5-1.5c-0.6-0.2-0.5-0.6-0.2-0.7c3.8-0.7,7.3-3.2,9.8-5c0.5-0.3,1,0.2,0.9,0.6
		c-0.3,1-0.2,3.9-0.2,6.8L267,47.1c-0.2,13.9,0.3,14.9,1,15.3c0.9,0.6,2.6,0.5,4.3,0.9c0.6,0.2,0.5,1,0.1,0.9
		C270.2,63.9,267.8,63.9,264.2,63.9z M263.6,15.6c-2.1,0-3.8-1.4-3.8-3.4c0-2.4,2.1-4.2,4.3-4.2c2.1,0,3.5,1.5,3.5,3.7
		C267.7,13.8,266,15.6,263.6,15.6z"/>
	<path class="st1" d="M295.6,64.8c-2.5,0-3.9-2.2-4.8-4.4c-0.2-0.2-0.5-0.3-0.7-0.1c-2.4,2.1-6.1,4.6-10.6,4.6c-4,0-7.5-3-7.5-6.5
		c0-7,7-9.2,18.4-13.1c0.7-0.2,0.8-0.6,0.9-1.8c0-0.9,0-3.3,0-4.2c0-6-2-8.2-6.1-8.2c-3.3,0-5.3,2.4-5.5,6c-0.2,3.7-1.5,4.8-3.8,4.8
		c-1.6,0-2.6-1-2.6-2.6c0.2-4.1,7.4-9.9,13.7-9.9c6.4,0,10,3.3,10,10c0,6.2-0.7,12.6-0.7,18.6c0,2.2,1,3.6,2.6,3.6
		c1.4,0,1.9-0.2,2.9-1c0.3-0.2,0.7,0.2,0.6,0.4C301.5,62.8,298.4,64.8,295.6,64.8z M290.4,46.7c-8.3,2.4-12.6,5.2-12.6,9.7
		c0,3.8,1.8,5.2,5.2,5.2c3.8,0,7.4-3.2,7.5-4.1c0.3-2.5,0.5-8.4,0.5-10.3C291,46.9,290.8,46.7,290.4,46.7z"/>
	<path class="st1" d="M330,63.9c-3.7,0-5.4,0.1-7.8,0.2c-0.4,0.1-0.6-0.7,0.1-0.9c1.8-0.4,2.9-0.3,3.8-0.9c0.9-0.5,1.4-5.2,1-21.8
		c-0.2-5.4-3-7.3-7.6-7.3c-3.6,0-5.8,1.7-7.9,4c-0.6,0.7-0.8,1.1-0.8,2.1l0.2,7.8c0.2,13.9,0.3,14.9,1,15.3c1,0.6,2.3,0.5,4.1,0.9
		c0.6,0.2,0.5,1,0.2,0.9c-2.6-0.2-4.6-0.2-8.1-0.2c-4,0-6.3,0.1-8.3,0.2c-0.4,0.1-0.6-0.7,0.1-0.9c1.8-0.4,3.4-0.3,4.4-0.9
		c0.6-0.3,1-1.4,1-15.3c0-9.6-0.2-10.6-1-11.4c-0.7-0.6-1.7-1-3.6-1.1c-0.6-0.1-0.5-0.6-0.1-0.7c3.8-1.1,6.6-3.9,9.2-5.9
		c0.5-0.4,0.9,0.1,0.9,0.4c-0.2,1-0.5,4.9-0.6,7.8c0,0.2,0.6,0.4,0.7,0.2c3.8-4.1,7.8-7.1,12.3-7.1c6.9,0,9.8,4.6,9.8,11.2
		c0,18.8,0.3,21.5,1,21.8c1,0.6,2.6,0.5,4.4,0.9c0.6,0.2,0.5,1,0.1,0.9C336.2,63.9,334,63.9,330,63.9z"/>
</g>
<g>
	<path class="st1" d="M115.6,75.3c-0.3,0.1-0.5,0.3-0.7,0.6c-0.1,0.3-0.2,0.8-0.2,1.5V91c0,0.7,0.1,1.2,0.2,1.5s0.3,0.5,0.7,0.6
		c0.3,0.1,0.8,0.2,1.5,0.2v0.5c-0.9-0.1-2.2-0.1-3.7-0.1c-1.7,0-2.9,0-3.8,0.1v-0.5c0.7,0,1.2-0.1,1.5-0.2s0.5-0.3,0.7-0.6
		c0.1-0.3,0.2-0.8,0.2-1.5V76.3L104.9,94h-0.5L97,76.3v14.4c0,0.7,0.1,1.2,0.2,1.6s0.4,0.6,0.8,0.8c0.4,0.2,0.9,0.2,1.7,0.3v0.5
		c-0.7-0.1-1.7-0.1-3-0.1c-1.2,0-2.1,0-2.7,0.1v-0.5c0.7,0,1.2-0.1,1.5-0.3c0.3-0.2,0.6-0.4,0.7-0.8s0.2-0.9,0.2-1.6V77.4
		c0-0.7-0.1-1.2-0.2-1.5s-0.3-0.5-0.7-0.6c-0.3-0.1-0.8-0.2-1.5-0.2v-0.5c0.7,0,1.6,0,2.8,0c1,0,1.9,0,2.5-0.1l6.5,15.9l6.3-15.8
		h1.4c1.6,0,2.8,0,3.7-0.1V75C116.5,75.1,116,75.2,115.6,75.3z"/>
	<path class="st1" d="M137.9,93.3v0.5c-0.8-0.1-1.9-0.1-3.2-0.1c-1.7,0-2.9,0-3.8,0.1v-0.5c0.7,0,1.3-0.1,1.6-0.3
		c0.3-0.1,0.5-0.4,0.5-0.8c0-0.3-0.1-0.7-0.3-1.3l-1.8-4.5h-7.1l-1.2,2.9c-0.4,0.9-0.6,1.7-0.6,2.2c0,0.6,0.2,1,0.6,1.2
		s1.1,0.4,1.9,0.4v0.5c-1.1-0.1-2.2-0.1-3.4-0.1c-0.9,0-1.6,0-2.2,0.1v-0.5c1-0.2,1.7-1,2.3-2.4l6.9-16.6h0.5l7.2,17.2
		C136.3,92.7,137,93.3,137.9,93.3z M127.4,77.8L124,86h6.7L127.4,77.8z"/>
	<path class="st1" d="M155.5,92.8c-0.1-0.3-0.3-0.5-0.6-0.5c-0.1,0-0.2,0-0.4,0.1c-0.1,0.1-0.3,0.2-0.6,0.4
		c-0.7,0.5-1.4,0.9-2.1,1.1c-0.7,0.2-1.6,0.4-2.5,0.4c-2,0-3.7-0.4-5.2-1.2c-1.4-0.8-2.5-1.9-3.3-3.4s-1.1-3.2-1.1-5.2
		c0-2.1,0.4-3.9,1.2-5.5s1.9-2.8,3.4-3.6c1.4-0.8,3.1-1.3,4.9-1.3c0.8,0,1.5,0.1,2.1,0.2c0.6,0.2,1.2,0.4,1.6,0.6
		c0.5,0.2,1,0.6,1.6,0.9c0.2,0.2,0.4,0.3,0.6,0.3c0.4,0,0.6-0.6,0.7-1.7h0.7c-0.1,1.2-0.1,3.3-0.1,6.3h-0.7c-0.2-1-0.4-1.8-0.6-2.4
		c-0.2-0.6-0.5-1.2-0.9-1.6c-0.6-0.7-1.3-1.2-2.2-1.6s-1.9-0.6-2.9-0.6c-1.3,0-2.4,0.4-3.4,1.2c-1,0.8-1.7,1.9-2.3,3.3
		c-0.5,1.4-0.8,3.1-0.8,5.1c0,2.2,0.3,4,0.8,5.4s1.3,2.4,2.3,3.1s2.3,1,4,1c1.2,0,2.2-0.3,3.1-0.9c0.4-0.2,0.6-0.4,0.7-0.6
		c0.1-0.2,0.2-0.5,0.2-0.9v-2.6c0-0.8-0.1-1.3-0.2-1.7c-0.2-0.4-0.4-0.6-0.8-0.7c-0.4-0.1-1-0.2-1.9-0.2v-0.4c1,0.1,2.4,0.1,4.2,0.1
		c1.4,0,2.4,0,3.1-0.1v0.5c-0.5,0-0.8,0.1-1,0.2s-0.3,0.3-0.4,0.6c-0.1,0.3-0.1,0.8-0.1,1.5v5.4h-0.9
		C155.7,93.5,155.6,93.1,155.5,92.8z"/>
	<path class="st1" d="M178.3,93.3v0.5c-0.8-0.1-1.9-0.1-3.2-0.1c-1.7,0-2.9,0-3.8,0.1v-0.5c0.7,0,1.3-0.1,1.6-0.3
		c0.3-0.1,0.5-0.4,0.5-0.8c0-0.3-0.1-0.7-0.3-1.3l-1.8-4.5h-7.1l-1.2,2.9c-0.4,0.9-0.6,1.7-0.6,2.2c0,0.6,0.2,1,0.6,1.2
		c0.4,0.2,1.1,0.4,1.9,0.4v0.5c-1.1-0.1-2.2-0.1-3.4-0.1c-0.9,0-1.6,0-2.2,0.1v-0.5c1-0.2,1.7-1,2.3-2.4l6.9-16.6h0.5l7.2,17.2
		C176.7,92.7,177.4,93.3,178.3,93.3z M167.8,77.8l-3.4,8.2h6.7L167.8,77.8z"/>
	<path class="st1" d="M182.8,93.2h6.2c1.2,0,2.2-0.2,2.8-0.5s1.1-0.8,1.4-1.5c0.3-0.7,0.5-1.7,0.7-3.1h0.7c-0.1,0.7-0.1,1.4-0.1,2.2
		c0,0.9,0.1,2.1,0.2,3.5c-1.5-0.1-3.9-0.1-7.3-0.1c-3.4,0-5.8,0-7.3,0.1v-0.5l12.3-18.2h-6.2c-1.2,0-2.2,0.2-2.8,0.5
		s-1.1,0.8-1.4,1.5c-0.3,0.7-0.5,1.7-0.7,3.1h-0.7c0.1-0.6,0.1-1.3,0.1-2.2c0-1-0.1-2.2-0.2-3.5c1.4,0.1,3.9,0.1,7.3,0.1
		c3.3,0,5.7,0,7.1-0.1V75L182.8,93.2z"/>
	<path class="st1" d="M204.2,75.3c-0.3,0.1-0.5,0.3-0.7,0.6c-0.1,0.3-0.2,0.8-0.2,1.5V91c0,0.7,0.1,1.2,0.2,1.5
		c0.1,0.3,0.3,0.5,0.7,0.6c0.3,0.1,0.8,0.2,1.5,0.2v0.5c-0.9-0.1-2.1-0.1-3.7-0.1c-1.7,0-2.9,0-3.8,0.1v-0.5c0.7,0,1.2-0.1,1.5-0.2
		s0.5-0.3,0.7-0.6c0.1-0.3,0.2-0.8,0.2-1.5V77.4c0-0.7-0.1-1.2-0.2-1.5c-0.1-0.3-0.3-0.5-0.7-0.6c-0.3-0.1-0.8-0.2-1.5-0.2v-0.5
		c0.8,0.1,2.1,0.1,3.8,0.1c1.6,0,2.8,0,3.7-0.1v0.5C205,75.1,204.5,75.2,204.2,75.3z"/>
	<path class="st1" d="M225.9,75.3c-0.3,0.2-0.6,0.4-0.7,0.8c-0.1,0.4-0.2,0.9-0.2,1.6V94h-0.7l-12.4-17.7v14.4
		c0,0.7,0.1,1.2,0.2,1.6c0.1,0.4,0.4,0.6,0.8,0.8c0.4,0.2,0.9,0.2,1.7,0.3v0.5c-0.7-0.1-1.7-0.1-3-0.1c-1.2,0-2.1,0-2.7,0.1v-0.5
		c0.7,0,1.2-0.1,1.5-0.3c0.3-0.2,0.6-0.4,0.7-0.8c0.1-0.4,0.2-0.9,0.2-1.6V77.4c0-0.7-0.1-1.2-0.2-1.5c-0.1-0.3-0.3-0.5-0.7-0.6
		c-0.3-0.1-0.8-0.2-1.5-0.2v-0.5c0.6,0.1,1.6,0.1,2.7,0.1c0.9,0,1.6,0,2.3-0.1l10.4,14.9V77.7c0-0.7-0.1-1.2-0.2-1.6
		c-0.1-0.4-0.4-0.6-0.8-0.8c-0.4-0.2-0.9-0.2-1.7-0.3v-0.5c0.7,0.1,1.7,0.1,3,0.1c1.2,0,2.1,0,2.7-0.1V75
		C226.7,75.1,226.2,75.2,225.9,75.3z"/>
	<path class="st1" d="M245.5,90.4c0,1,0.1,2.2,0.2,3.5c-1.3-0.1-3.6-0.1-6.7-0.1c-3.8,0-6.6,0-8.5,0.1v-0.5c0.7,0,1.2-0.1,1.5-0.2
		s0.5-0.3,0.7-0.6c0.1-0.3,0.2-0.8,0.2-1.5V77.4c0-0.7-0.1-1.2-0.2-1.5c-0.1-0.3-0.3-0.5-0.7-0.6c-0.3-0.1-0.8-0.2-1.5-0.2v-0.5
		c1.9,0.1,4.8,0.1,8.5,0.1c2.9,0,4.9,0,6.1-0.1c-0.1,1.2-0.2,2.3-0.2,3.2c0,0.7,0,1.3,0.1,1.7h-0.7c-0.1-1.2-0.3-2.1-0.5-2.6
		c-0.2-0.6-0.6-1-1.1-1.3s-1.3-0.4-2.3-0.4H238c-0.7,0-1.2,0.1-1.5,0.2s-0.5,0.3-0.7,0.6c-0.1,0.3-0.2,0.8-0.2,1.5V84h2
		c1,0,1.6-0.3,2-0.8c0.3-0.5,0.5-1.1,0.6-1.7s0.1-0.9,0.2-1.1h0.7c-0.1,0.9-0.1,1.8-0.1,2.6v1.3c0,0.9,0.1,2.2,0.2,3.9h-0.7
		c0-0.1-0.1-0.6-0.2-1.3c-0.1-0.8-0.4-1.3-0.8-1.7c-0.4-0.4-1.1-0.6-1.9-0.6h-2v6.6c0,0.7,0.1,1.2,0.2,1.5c0.1,0.3,0.3,0.5,0.7,0.6
		c0.3,0.1,0.8,0.2,1.5,0.2h2.2c1.2,0,2.2-0.2,2.8-0.5s1.1-0.8,1.4-1.5c0.3-0.7,0.5-1.6,0.7-2.9h0.7
		C245.5,88.9,245.5,89.5,245.5,90.4z"/>
</g>
</svg>
