<?xml version="1.0" encoding="utf-8"?>
<!-- Generator: Adobe Illustrator 24.0.1, SVG Export Plug-In . SVG Version: 6.00 Build 0)  -->
<svg version="1.1" id="Layer_1" xmlns="http://www.w3.org/2000/svg" xmlns:xlink="http://www.w3.org/1999/xlink" x="0px" y="0px"
	 viewBox="0 0 337.9 92.3" style="enable-background:new 0 0 337.9 92.3;" xml:space="preserve">
<style type="text/css">
	.st0{fill:#010101;}
	.st1{fill:#FFFFFF;}
</style>
<g>
	<path class="st0" d="M16.4,63.8c-4.2,0-9.5-1.4-15-3.8c-0.7-0.3-1-10.5-1.4-13.4C-0.1,46,0.8,46,1,46.4
		c3.5,11.2,8.9,15.4,17.4,15.4c6.5,0,11-4,11-11.8c0-15.7-27.2-14.8-27.2-30.6C2.2,10.8,8.7,4,20.2,4c4.2,0,7.2,0.8,11.4,3
		c0.7,0.3,0.7,7.9,1,10.8c0.1,0.6-0.8,0.6-0.9,0.2c-2.6-7.7-7-12.1-13.8-12.1c-5.2,0-9.4,3.2-9.4,10.3c0,14.2,27.2,12.6,27.2,31.8
		C35.6,56.5,28.8,63.8,16.4,63.8z"/>
	<path class="st0" d="M86,62.3c-3.7,0-5,0.1-7.4,0.2c-0.4,0.1-0.6-0.7,0.1-0.9c1.8-0.4,2.5-0.3,3.4-0.9c1-0.5,1.4-6.4,1-23
		c-0.1-3.9-2.5-5.8-7-5.8c-3.6,0-5.8,1.4-7.9,3.8c-0.6,0.7-0.8,1.2-0.8,2.1v0.7c0,18.8,0.4,22,1,22.3c1,0.6,2,0.5,3.8,0.9
		c0.6,0.2,0.5,1,0.1,0.9c-2-0.2-3.8-0.2-7.8-0.2c-3.7,0-5,0.1-7.4,0.2c-0.4,0.1-0.6-0.7,0.1-0.9c1.8-0.4,2.5-0.3,3.4-0.9
		c0.9-0.5,1.4-5.2,1-21.8c-0.2-5.4-2.5-7.3-7-7.3c-3.6,0-5.8,1.7-7.9,4c-0.6,0.7-0.8,1.1-0.8,2.1l0.2,7.8c0.2,13.9,0.3,14.9,1,15.3
		c1,0.6,1.6,0.5,3.4,0.9c0.6,0.2,0.5,1,0.1,0.9c-2.3-0.2-3.7-0.2-7.4-0.2c-4,0-6.3,0.1-8.3,0.2c-0.4,0.1-0.6-0.7,0.1-0.9
		c1.8-0.4,3.4-0.3,4.4-0.9c0.6-0.3,1-1.4,1-15.3c0-9.6-0.2-10.6-1-11.4c-0.7-0.6-1.7-1-3.6-1.1c-0.6-0.1-0.4-0.6-0.1-0.7
		c3.8-1.1,6.6-3.9,9.2-5.9c0.5-0.4,0.9,0.1,0.9,0.4c-0.2,1-0.5,4.9-0.6,7.8c0,0.2,0.6,0.4,0.7,0.2c3.8-4.1,7.8-7.1,12.3-7.1
		c4.8,0,7.4,2.7,8.6,6.5c0.1,0.3,0.6,0.4,0.7,0.3c3.9-3.9,7.7-6.5,12.2-6.5c6.9,0,9.2,4.1,9.2,9.7c0,18.8,0.3,22.7,1,23
		c1,0.6,2.6,0.5,4.4,0.9c0.6,0.2,0.5,1,0.1,0.9C92.2,62.3,90,62.3,86,62.3z"/>
	<path class="st0" d="M98.8,62.3c-4,0-6.2,0.1-8.3,0.2c-0.4,0.1-0.6-0.7,0.1-0.9c1.8-0.4,3.4-0.3,4.4-0.9c0.6-0.3,1-1.4,1-15.3
		c0-9.6-0.2-11.1-1-11.9c-0.7-0.7-1.7-1.2-3.5-1.5c-0.6-0.2-0.5-0.6-0.2-0.7c3.8-0.7,7.3-3.2,9.8-5c0.5-0.3,1,0.2,0.9,0.6
		c-0.3,1-0.2,3.9-0.2,6.8l-0.2,11.8c-0.2,13.9,0.3,14.9,1,15.3c0.9,0.6,2.6,0.5,4.3,0.9c0.6,0.2,0.5,1,0.1,0.9
		C104.8,62.3,102.5,62.3,98.8,62.3z M98.2,14c-2.1,0-3.8-1.4-3.8-3.4c0-2.4,2.1-4.2,4.3-4.2c2.1,0,3.5,1.5,3.5,3.7
		C102.3,12.2,100.6,14,98.2,14z"/>
	<path class="st0" d="M119.4,63.2c-7.1,0-8.5-4.6-8.5-9.8c0-6.6,0.2-18.8,0.2-21.4c-2.5-0.1-4.6-0.2-6.6,0c-0.4,0-0.4-1.5,0.2-1.7
		c5.3-1.3,9.3-5,11.6-9.5c0.3-0.6,1.4-0.1,1.4,0.2c-0.1,1-0.4,4.2-0.5,7.1c0,0.2,0.2,0.5,0.7,0.5c5.6,0,7.5-0.2,10.5-0.3
		c0.8-0.1,0.9,4-0.2,3.9c-3-0.2-5.8-0.3-11.4-0.3c0,3.8-0.2,14.2-0.2,20.4c0,5,1.2,8.1,5.4,8.1c2.5,0,4.6-0.6,6.4-2
		c0.3-0.2,0.6,0.5,0.5,0.6C127,61.3,122.6,63.2,119.4,63.2z"/>
	<path class="st0" d="M157.4,62.3c-3.8,0-5.5,0.1-7.8,0.2c-0.4,0.1-0.5-0.7,0.1-0.9c1.8-0.4,2.9-0.3,3.8-0.9c0.9-0.5,1.4-5.2,1-21.8
		c-0.2-5.4-3.6-7.3-8.2-7.3c-3.6,0-6.3,1.7-8.4,4c-0.6,0.7-0.8,1.1-0.8,2.1v7.8c0,13.8,0.3,14.9,1,15.3c1,0.6,2,0.5,3.8,0.9
		c0.6,0.2,0.5,1,0.1,0.9c-2.3-0.2-4.1-0.2-7.8-0.2c-4,0-6.3,0.1-8.4,0.2c-0.3,0.1-0.5-0.7,0.1-0.9c1.8-0.4,3.4-0.3,4.4-0.9
		c0.6-0.3,1-1.5,1-28.1c0-22.2-0.2-26.4-1-26.9c-0.7-0.5-2.1-0.8-3.9-1c-0.6-0.1-0.5-0.6-0.2-0.7c3.8-0.6,8.2-2.1,10.9-3.9
		c0.5-0.3,0.9,0.2,0.8,0.6c-0.5,1.7-0.6,4.8-0.6,5.7L137.1,34c0,0.3,0.6,0.4,0.6,0.3c3.8-4.2,7.7-6.6,12.2-6.6
		c6.8,0,10.2,4.6,10.2,11.2c0,18.8,0.4,21.5,1,21.8c1,0.6,2.6,0.5,4.4,0.9c0.6,0.2,0.5,1,0.1,0.9C163.6,62.3,161.3,62.3,157.4,62.3z
		"/>
	<path class="st0" d="M172.4,63.2c-2.6,0-6.9-1.2-8.4-2.1c-0.7-0.5-1.5-4.7-1.7-8.2c0-0.6,0.9-0.6,1-0.2c0.9,3.8,5.8,8.8,9.9,8.8
		c4.1,0,6.6-2.5,6.6-6.6c0-8.2-16.3-7.8-16.3-17.1c0-5.8,4.8-10.2,11.6-10.2c2.1,0,5.8,0.6,7,1.3c0.7,0.4,1,4.5,1,7.4
		c0,0.6-0.9,0.6-1,0.2c-0.5-3-4.5-7.2-8-7.2s-5.4,2.2-5.4,5.4c0,8.4,16.5,7.2,16.5,17.8C185.2,58.6,180,63.2,172.4,63.2z"/>
	<path class="st0" d="M203.6,63.2c-11.8,0-17.6-8.8-17.6-18c0-9.4,7-17.5,17.3-17.5c11.8,0,17.7,8.8,17.7,18.1
		C220.9,55.1,214,63.2,203.6,63.2z M202.9,29.1c-6.2,0-10.6,6.7-10.6,15.5c0,9.3,4.5,17.4,11.8,17.4c6.3,0,10.6-6.7,10.6-15.5
		C214.7,37.1,210.2,29.1,202.9,29.1z"/>
	<path class="st0" d="M249.6,62.3c-3.7,0-5.4,0.1-7.8,0.2c-0.4,0.1-0.6-0.7,0.1-0.9c1.8-0.4,2.9-0.3,3.8-0.9c0.9-0.5,1.4-5.2,1-21.8
		c-0.2-5.4-3-7.3-7.6-7.3c-3.6,0-5.8,1.7-7.9,4c-0.6,0.7-0.8,1.1-0.8,2.1l0.2,7.8c0.2,13.9,0.3,14.9,1,15.3c1,0.6,2.3,0.5,4.1,0.9
		c0.6,0.2,0.5,1,0.2,0.9c-2.6-0.2-4.6-0.2-8.1-0.2c-4,0-6.3,0.1-8.3,0.2c-0.4,0.1-0.6-0.7,0.1-0.9c1.8-0.4,3.4-0.3,4.4-0.9
		c0.6-0.3,1-1.4,1-15.3c0-9.6-0.2-10.6-1-11.4c-0.7-0.6-1.7-1-3.6-1.1c-0.6-0.1-0.5-0.6-0.1-0.7c3.8-1.1,6.6-3.9,9.2-5.9
		c0.5-0.4,0.9,0.1,0.9,0.4c-0.2,1-0.5,4.9-0.6,7.8c0,0.2,0.6,0.4,0.7,0.2c3.8-4.1,7.8-7.1,12.3-7.1c6.9,0,9.8,4.6,9.8,11.2
		c0,18.8,0.3,21.5,1,21.8c1,0.6,2.6,0.5,4.4,0.9c0.6,0.2,0.5,1,0.1,0.9C255.8,62.3,253.6,62.3,249.6,62.3z"/>
	<path class="st0" d="M263.5,62.3c-4,0-6.2,0.1-8.3,0.2c-0.4,0.1-0.6-0.7,0.1-0.9c1.8-0.4,3.4-0.3,4.4-0.9c0.6-0.3,1-1.4,1-15.3
		c0-9.6-0.2-11.1-1-11.9c-0.7-0.7-1.7-1.2-3.5-1.5c-0.6-0.2-0.5-0.6-0.2-0.7c3.8-0.7,7.3-3.2,9.8-5c0.5-0.3,1,0.2,0.9,0.6
		c-0.3,1-0.2,3.9-0.2,6.8l-0.2,11.8c-0.2,13.9,0.3,14.9,1,15.3c0.9,0.6,2.6,0.5,4.3,0.9c0.6,0.2,0.5,1,0.1,0.9
		C269.5,62.3,267.1,62.3,263.5,62.3z M262.9,14c-2.1,0-3.8-1.4-3.8-3.4c0-2.4,2.1-4.2,4.3-4.2c2.1,0,3.5,1.5,3.5,3.7
		C267,12.2,265.3,14,262.9,14z"/>
	<path class="st0" d="M294.9,63.2c-2.5,0-3.9-2.2-4.8-4.4c-0.2-0.2-0.5-0.3-0.7-0.1c-2.4,2.1-6.1,4.6-10.6,4.6c-4,0-7.5-3-7.5-6.5
		c0-7,7-9.2,18.4-13.1c0.7-0.2,0.8-0.6,0.9-1.8c0-0.9,0-3.3,0-4.2c0-6-2-8.2-6.1-8.2c-3.3,0-5.3,2.4-5.5,6c-0.2,3.7-1.5,4.8-3.8,4.8
		c-1.6,0-2.6-1-2.6-2.6c0.2-4.1,7.4-9.9,13.7-9.9c6.4,0,10,3.3,10,10c0,6.2-0.7,12.6-0.7,18.6c0,2.2,1,3.6,2.6,3.6
		c1.4,0,1.9-0.2,2.9-1c0.3-0.2,0.7,0.2,0.6,0.4C300.8,61.2,297.7,63.2,294.9,63.2z M289.7,45.1c-8.3,2.4-12.6,5.2-12.6,9.7
		c0,3.8,1.8,5.2,5.2,5.2c3.8,0,7.4-3.2,7.5-4.1c0.3-2.5,0.5-8.4,0.5-10.3C290.3,45.3,290.1,45.1,289.7,45.1z"/>
	<path class="st0" d="M329.3,62.3c-3.7,0-5.4,0.1-7.8,0.2c-0.4,0.1-0.6-0.7,0.1-0.9c1.8-0.4,2.9-0.3,3.8-0.9c0.9-0.5,1.4-5.2,1-21.8
		c-0.2-5.4-3-7.3-7.6-7.3c-3.6,0-5.8,1.7-7.9,4c-0.6,0.7-0.8,1.1-0.8,2.1l0.2,7.8c0.2,13.9,0.3,14.9,1,15.3c1,0.6,2.3,0.5,4.1,0.9
		c0.6,0.2,0.5,1,0.2,0.9c-2.6-0.2-4.6-0.2-8.1-0.2c-4,0-6.3,0.1-8.3,0.2c-0.4,0.1-0.6-0.7,0.1-0.9c1.8-0.4,3.4-0.3,4.4-0.9
		c0.6-0.3,1-1.4,1-15.3c0-9.6-0.2-10.6-1-11.4c-0.7-0.6-1.7-1-3.6-1.1c-0.6-0.1-0.5-0.6-0.1-0.7c3.8-1.1,6.6-3.9,9.2-5.9
		c0.5-0.4,0.9,0.1,0.9,0.4c-0.2,1-0.5,4.9-0.6,7.8c0,0.2,0.6,0.4,0.7,0.2c3.8-4.1,7.8-7.1,12.3-7.1c6.9,0,9.8,4.6,9.8,11.2
		c0,18.8,0.3,21.5,1,21.8c1,0.6,2.6,0.5,4.4,0.9c0.6,0.2,0.5,1,0.1,0.9C335.5,62.3,333.3,62.3,329.3,62.3z"/>
</g>
<g>
	<path d="M114.9,73.7c-0.3,0.1-0.5,0.3-0.7,0.6c-0.1,0.3-0.2,0.8-0.2,1.5v13.6c0,0.7,0.1,1.2,0.2,1.5s0.3,0.5,0.7,0.6
		c0.3,0.1,0.8,0.2,1.5,0.2v0.5c-0.9-0.1-2.2-0.1-3.7-0.1c-1.7,0-2.9,0-3.8,0.1v-0.5c0.7,0,1.2-0.1,1.5-0.2s0.5-0.3,0.7-0.6
		c0.1-0.3,0.2-0.8,0.2-1.5V74.7l-7.1,17.7h-0.5l-7.4-17.7v14.4c0,0.7,0.1,1.2,0.2,1.6s0.4,0.6,0.8,0.8c0.4,0.2,0.9,0.2,1.7,0.3v0.5
		c-0.7-0.1-1.7-0.1-3-0.1c-1.2,0-2.1,0-2.7,0.1v-0.5c0.7,0,1.2-0.1,1.5-0.3c0.3-0.2,0.6-0.4,0.7-0.8s0.2-0.9,0.2-1.6V75.8
		c0-0.7-0.1-1.2-0.2-1.5s-0.3-0.5-0.7-0.6c-0.3-0.1-0.8-0.2-1.5-0.2V73c0.7,0,1.6,0,2.8,0c1,0,1.9,0,2.5-0.1l6.5,15.9l6.3-15.8h1.4
		c1.6,0,2.8,0,3.7-0.1v0.5C115.8,73.5,115.3,73.6,114.9,73.7z"/>
	<path d="M137.2,91.7v0.5c-0.8-0.1-1.9-0.1-3.2-0.1c-1.7,0-2.9,0-3.8,0.1v-0.5c0.7,0,1.3-0.1,1.6-0.3c0.3-0.1,0.5-0.4,0.5-0.8
		c0-0.3-0.1-0.7-0.3-1.3l-1.8-4.5h-7.1l-1.2,2.9c-0.4,0.9-0.6,1.7-0.6,2.2c0,0.6,0.2,1,0.6,1.2s1.1,0.4,1.9,0.4V92
		c-1.1-0.1-2.2-0.1-3.4-0.1c-0.9,0-1.6,0-2.2,0.1v-0.5c1-0.2,1.7-1,2.3-2.4l6.9-16.6h0.5l7.2,17.2C135.6,91.1,136.3,91.7,137.2,91.7
		z M126.7,76.2l-3.4,8.2h6.7L126.7,76.2z"/>
	<path d="M154.8,91.2c-0.1-0.3-0.3-0.5-0.6-0.5c-0.1,0-0.2,0-0.4,0.1c-0.1,0.1-0.3,0.2-0.6,0.4c-0.7,0.5-1.4,0.9-2.1,1.1
		c-0.7,0.2-1.6,0.4-2.5,0.4c-2,0-3.7-0.4-5.2-1.2c-1.4-0.8-2.5-1.9-3.3-3.4s-1.1-3.2-1.1-5.2c0-2.1,0.4-3.9,1.2-5.5s1.9-2.8,3.4-3.6
		c1.4-0.8,3.1-1.3,4.9-1.3c0.8,0,1.5,0.1,2.1,0.2c0.6,0.2,1.2,0.4,1.6,0.6c0.5,0.2,1,0.6,1.6,0.9c0.2,0.2,0.4,0.3,0.6,0.3
		c0.4,0,0.6-0.6,0.7-1.7h0.7c-0.1,1.2-0.1,3.3-0.1,6.3H155c-0.2-1-0.4-1.8-0.6-2.4c-0.2-0.6-0.5-1.2-0.9-1.6
		c-0.6-0.7-1.3-1.2-2.2-1.6s-1.9-0.6-2.9-0.6c-1.3,0-2.4,0.4-3.4,1.2c-1,0.8-1.7,1.9-2.3,3.3c-0.5,1.4-0.8,3.1-0.8,5.1
		c0,2.2,0.3,4,0.8,5.4s1.3,2.4,2.3,3.1s2.3,1,4,1c1.2,0,2.2-0.3,3.1-0.9c0.4-0.2,0.6-0.4,0.7-0.6c0.1-0.2,0.2-0.5,0.2-0.9V87
		c0-0.8-0.1-1.3-0.2-1.7c-0.2-0.4-0.4-0.6-0.8-0.7c-0.4-0.1-1-0.2-1.9-0.2V84c1,0.1,2.4,0.1,4.2,0.1c1.4,0,2.4,0,3.1-0.1v0.5
		c-0.5,0-0.8,0.1-1,0.2s-0.3,0.3-0.4,0.6c-0.1,0.3-0.1,0.8-0.1,1.5v5.4H155C155,91.9,154.9,91.5,154.8,91.2z"/>
	<path d="M177.6,91.7v0.5c-0.8-0.1-1.9-0.1-3.2-0.1c-1.7,0-2.9,0-3.8,0.1v-0.5c0.7,0,1.3-0.1,1.6-0.3c0.3-0.1,0.5-0.4,0.5-0.8
		c0-0.3-0.1-0.7-0.3-1.3l-1.8-4.5h-7.1l-1.2,2.9c-0.4,0.9-0.6,1.7-0.6,2.2c0,0.6,0.2,1,0.6,1.2c0.4,0.2,1.1,0.4,1.9,0.4V92
		c-1.1-0.1-2.2-0.1-3.4-0.1c-0.9,0-1.6,0-2.2,0.1v-0.5c1-0.2,1.7-1,2.3-2.4l6.9-16.6h0.5l7.2,17.2C176,91.1,176.7,91.7,177.6,91.7z
		 M167.1,76.2l-3.4,8.2h6.7L167.1,76.2z"/>
	<path d="M182.1,91.6h6.2c1.2,0,2.2-0.2,2.8-0.5s1.1-0.8,1.4-1.5c0.3-0.7,0.5-1.7,0.7-3.1h0.7c-0.1,0.7-0.1,1.4-0.1,2.2
		c0,0.9,0.1,2.1,0.2,3.5c-1.5-0.1-3.9-0.1-7.3-0.1c-3.4,0-5.8,0-7.3,0.1v-0.5l12.3-18.2h-6.2c-1.2,0-2.2,0.2-2.8,0.5
		s-1.1,0.8-1.4,1.5c-0.3,0.7-0.5,1.7-0.7,3.1h-0.7c0.1-0.6,0.1-1.3,0.1-2.2c0-1-0.1-2.2-0.2-3.5c1.4,0.1,3.9,0.1,7.3,0.1
		c3.3,0,5.7,0,7.1-0.1v0.5L182.1,91.6z"/>
	<path d="M203.5,73.7c-0.3,0.1-0.5,0.3-0.7,0.6c-0.1,0.3-0.2,0.8-0.2,1.5v13.6c0,0.7,0.1,1.2,0.2,1.5c0.1,0.3,0.3,0.5,0.7,0.6
		c0.3,0.1,0.8,0.2,1.5,0.2v0.5c-0.9-0.1-2.1-0.1-3.7-0.1c-1.7,0-2.9,0-3.8,0.1v-0.5c0.7,0,1.2-0.1,1.5-0.2s0.5-0.3,0.7-0.6
		c0.1-0.3,0.2-0.8,0.2-1.5V75.8c0-0.7-0.1-1.2-0.2-1.5c-0.1-0.3-0.3-0.5-0.7-0.6c-0.3-0.1-0.8-0.2-1.5-0.2V73
		c0.8,0.1,2.1,0.1,3.8,0.1c1.6,0,2.8,0,3.7-0.1v0.5C204.3,73.5,203.8,73.6,203.5,73.7z"/>
	<path d="M225.2,73.7c-0.3,0.2-0.6,0.4-0.7,0.8c-0.1,0.4-0.2,0.9-0.2,1.6v16.3h-0.7l-12.4-17.7v14.4c0,0.7,0.1,1.2,0.2,1.6
		c0.1,0.4,0.4,0.6,0.8,0.8c0.4,0.2,0.9,0.2,1.7,0.3v0.5c-0.7-0.1-1.7-0.1-3-0.1c-1.2,0-2.1,0-2.7,0.1v-0.5c0.7,0,1.2-0.1,1.5-0.3
		c0.3-0.2,0.6-0.4,0.7-0.8c0.1-0.4,0.2-0.9,0.2-1.6V75.8c0-0.7-0.1-1.2-0.2-1.5c-0.1-0.3-0.3-0.5-0.7-0.6c-0.3-0.1-0.8-0.2-1.5-0.2
		V73c0.6,0.1,1.6,0.1,2.7,0.1c0.9,0,1.6,0,2.3-0.1l10.4,14.9V76.1c0-0.7-0.1-1.2-0.2-1.6c-0.1-0.4-0.4-0.6-0.8-0.8
		c-0.4-0.2-0.9-0.2-1.7-0.3v-0.5c0.7,0.1,1.7,0.1,3,0.1c1.2,0,2.1,0,2.7-0.1v0.5C226,73.5,225.5,73.6,225.2,73.7z"/>
	<path d="M244.8,88.8c0,1,0.1,2.2,0.2,3.5c-1.3-0.1-3.6-0.1-6.7-0.1c-3.8,0-6.6,0-8.5,0.1v-0.5c0.7,0,1.2-0.1,1.5-0.2
		s0.5-0.3,0.7-0.6c0.1-0.3,0.2-0.8,0.2-1.5V75.8c0-0.7-0.1-1.2-0.2-1.5c-0.1-0.3-0.3-0.5-0.7-0.6c-0.3-0.1-0.8-0.2-1.5-0.2V73
		c1.9,0.1,4.8,0.1,8.5,0.1c2.9,0,4.9,0,6.1-0.1c-0.1,1.2-0.2,2.3-0.2,3.2c0,0.7,0,1.3,0.1,1.7h-0.7c-0.1-1.2-0.3-2.1-0.5-2.6
		c-0.2-0.6-0.6-1-1.1-1.3s-1.3-0.4-2.3-0.4h-2.4c-0.7,0-1.2,0.1-1.5,0.2s-0.5,0.3-0.7,0.6c-0.1,0.3-0.2,0.8-0.2,1.5v6.5h2
		c1,0,1.6-0.3,2-0.8c0.3-0.5,0.5-1.1,0.6-1.7s0.1-0.9,0.2-1.1h0.7c-0.1,0.9-0.1,1.8-0.1,2.6v1.3c0,0.9,0.1,2.2,0.2,3.9h-0.7
		c0-0.1-0.1-0.6-0.2-1.3c-0.1-0.8-0.4-1.3-0.8-1.7c-0.4-0.4-1.1-0.6-1.9-0.6h-2v6.6c0,0.7,0.1,1.2,0.2,1.5c0.1,0.3,0.3,0.5,0.7,0.6
		c0.3,0.1,0.8,0.2,1.5,0.2h2.2c1.2,0,2.2-0.2,2.8-0.5s1.1-0.8,1.4-1.5c0.3-0.7,0.5-1.6,0.7-2.9h0.7
		C244.8,87.3,244.8,87.9,244.8,88.8z"/>
</g>
</svg>
